<svg id="Layer_1" height="512" viewBox="0 0 128 128" width="512" xmlns="http://www.w3.org/2000/svg" data-name="Layer 1"><path d="m42.152 72.989a7.761 7.761 0 0 0 -10.615-2.527 10.223 10.223 0 0 0 -19.389 2.451 12.133 12.133 0 0 0 1.742 24.141h26.019a12.137 12.137 0 0 0 2.243-24.065z" fill="#eaeaea"/><path d="m42.152 72.989a7.761 7.761 0 0 0 -10.615-2.527 10.212 10.212 0 0 0 -17.88-1.362 10.2 10.2 0 0 1 14.878 4.361 7.761 7.761 0 0 1 10.615 2.53 12.124 12.124 0 0 1 7.706 18.871 12.129 12.129 0 0 0 -4.7-21.873z" fill="#d2d2d2"/><path d="m85.848 72.989a7.761 7.761 0 0 1 10.615-2.527 10.223 10.223 0 0 1 19.389 2.451 12.133 12.133 0 0 1 -1.742 24.141h-26.019a12.137 12.137 0 0 1 -2.243-24.065z" fill="#eaeaea"/><path d="m115.852 72.913a10.212 10.212 0 0 0 -16.519-6.166 10.21 10.21 0 0 1 12.517 8.168 12.118 12.118 0 0 1 5.578 21.669 12.127 12.127 0 0 0 -1.576-23.671z" fill="#d2d2d2"/><path d="m22.219 64.446a10.152 10.152 0 0 1 5.381 1.535 38.987 38.987 0 0 1 72.81 0 10.195 10.195 0 0 1 10.514-.148 48.994 48.994 0 0 0 -93.838 0 10.162 10.162 0 0 1 5.133-1.387z" fill="#54b88b"/><path d="m31.537 70.462a7.539 7.539 0 0 1 5.426-.985 28.989 28.989 0 0 1 54.074 0 7.539 7.539 0 0 1 5.426.985 10.288 10.288 0 0 1 3.942-4.481 38.987 38.987 0 0 0 -72.81 0 10.288 10.288 0 0 1 3.942 4.481z" fill="#ffca28"/><path d="m42.152 72.989a12.066 12.066 0 0 1 3.692 1.349 19 19 0 0 1 36.314 0 12.066 12.066 0 0 1 3.692-1.349 7.787 7.787 0 0 1 5.188-3.512 28.989 28.989 0 0 0 -54.074 0 7.788 7.788 0 0 1 5.188 3.512z" fill="#ff6e6e"/><path d="m89.422 66.048a11.7 11.7 0 0 0 -4.917 3.4 16.036 16.036 0 0 0 -3.713 1.636 18.854 18.854 0 0 1 1.365 3.259 12.066 12.066 0 0 1 3.692-1.349 7.787 7.787 0 0 1 5.188-3.512 28.884 28.884 0 0 0 -1.615-3.434z" fill="#e56363"/><path d="m91.037 69.477a7.539 7.539 0 0 1 5.426.985 10.288 10.288 0 0 1 3.942-4.481c-.419-1.089-.891-2.151-1.4-3.19a14.287 14.287 0 0 0 -3.159 2.794 11.682 11.682 0 0 0 -6.422.464 28.884 28.884 0 0 1 1.613 3.428z" fill="#ff8f00"/><path d="m99 62.791c.511 1.039.983 2.1 1.4 3.19a10.195 10.195 0 0 1 10.514-.148 48.629 48.629 0 0 0 -1.907-5.212 14.36 14.36 0 0 0 -2.231-.175 14.187 14.187 0 0 0 -7.776 2.345z" fill="#4ba57d"/><path d="m38.578 66.048a11.7 11.7 0 0 1 4.917 3.4 16.036 16.036 0 0 1 3.713 1.636 18.854 18.854 0 0 0 -1.365 3.259 12.066 12.066 0 0 0 -3.692-1.349 7.787 7.787 0 0 0 -5.188-3.512 28.884 28.884 0 0 1 1.615-3.434z" fill="#e56363"/><path d="m36.963 69.477a7.539 7.539 0 0 0 -5.426.985 10.288 10.288 0 0 0 -3.937-4.481c.419-1.089.891-2.151 1.4-3.19a14.287 14.287 0 0 1 3.159 2.794 11.682 11.682 0 0 1 6.422.464 28.884 28.884 0 0 0 -1.618 3.428z" fill="#ff8f00"/><path d="m29 62.791c-.511 1.039-.983 2.1-1.4 3.19a10.195 10.195 0 0 0 -10.514-.148 48.629 48.629 0 0 1 1.907-5.212 14.36 14.36 0 0 1 2.231-.175 14.187 14.187 0 0 1 7.776 2.345z" fill="#4ba57d"/><path d="m25.687 95.3h-1.441a1.75 1.75 0 0 0 0 3.5h1.441a1.75 1.75 0 0 0 0-3.5z"/><path d="m117.3 71.409a11.935 11.935 0 0 0 -4.917-6.728 51.279 51.279 0 0 0 -17.742-25.162 1.75 1.75 0 1 0 -2.118 2.781 47.852 47.852 0 0 1 15.539 20.611 12.06 12.06 0 0 0 -6.761.653 41.4 41.4 0 0 0 -28.1-23.3 39.917 39.917 0 0 0 -9.201-1.064 41 41 0 0 0 -37.3 24.369 12.041 12.041 0 0 0 -6.764-.653 47.618 47.618 0 0 1 44.064-30.216 46.76 46.76 0 0 1 19.291 4.121 1.75 1.75 0 1 0 1.434-3.192 50.229 50.229 0 0 0 -20.725-4.429 51.106 51.106 0 0 0 -48.385 35.481 11.935 11.935 0 0 0 -4.915 6.728 13.883 13.883 0 0 0 3.193 27.4h3.19a1.75 1.75 0 1 0 0-3.5h-3.19a10.383 10.383 0 0 1 -1.493-20.664 1.749 1.749 0 0 0 1.474-1.431 8.459 8.459 0 0 1 4.061-5.858c.01-.005.021-.006.03-.012a8.032 8.032 0 0 1 1.021-.5h.006a8.516 8.516 0 0 1 10.953 4.346 1.75 1.75 0 0 0 2.5.774 6.07 6.07 0 0 1 6.942.512 6.162 6.162 0 0 1 1.283 1.444 1.75 1.75 0 0 0 1.159.789 11.122 11.122 0 0 1 3.194 1.171 10.383 10.383 0 0 1 -5.114 19.42h-7.056a1.75 1.75 0 1 0 0 3.5h7.057a13.879 13.879 0 0 0 8.045-25.2 17.253 17.253 0 0 1 32.091 0 13.879 13.879 0 0 0 8.045 25.2h26.019a13.883 13.883 0 0 0 3.193-27.4zm-85.828-4.319a11.974 11.974 0 0 0 -1.714-1.713 37.755 37.755 0 0 1 34.242-22.677 37.755 37.755 0 0 1 34.242 22.677 12.055 12.055 0 0 0 -2.516 2.8 9.434 9.434 0 0 0 -3.577-.583 31.236 31.236 0 0 0 -28.149-18.394 31.234 31.234 0 0 0 -28.148 18.39 9.568 9.568 0 0 0 -3.577.583 11.9 11.9 0 0 0 -.803-1.083zm51.68 4.852a20.76 20.76 0 0 0 -38.3 0c-.028-.011-.057-.016-.085-.027a13.816 13.816 0 0 0 -1.563-.491 9.493 9.493 0 0 0 -3.856-3.043 27.22 27.22 0 0 1 49.312 0 9.493 9.493 0 0 0 -3.86 3.044 13.816 13.816 0 0 0 -1.563.491c-.028.01-.058.016-.086.026zm30.957 23.358h-26.018a10.383 10.383 0 0 1 -5.109-19.426 11.4 11.4 0 0 1 2.538-1.02 4.97 4.97 0 0 0 1.16-.328 3.929 3.929 0 0 0 1.056-1.172 6 6 0 0 1 7.533-1.554 2.17 2.17 0 0 0 1.711.338 1.752 1.752 0 0 0 1.076-.949 8.516 8.516 0 0 1 10.955-4.345 8.029 8.029 0 0 1 1.023.5c.01.006.021.007.031.012a8.459 8.459 0 0 1 4.061 5.857 1.749 1.749 0 0 0 1.474 1.431 10.383 10.383 0 0 1 -1.491 20.656z"/></svg>